#!OML:ASF H:\Swim 2\Project 1\Capture day 1\Session 1\male.ASF
:FULLY-SPECIFIED
:DEGREES
1614
root 0.117086 13.8635 6.32443 89.048 1.43032 -0.740335
lowerback -10.4008 2.48275 -6.29601
upperback -0.340774 3.88169 4.21717
thorax 4.76382 1.75997 8.59912
lowerneck -15.838 -3.09462 -1.50639
upperneck 30.6386 -3.50833 -1.06717
head 12.8574 -1.77092 -0.674834
rclavicle -4.29375e-014 -3.4191e-014
rhumerus 83.3743 -15.7309 -24.6123
rradius 27.8961
rwrist 19.3652
rhand -44.2247 10.9951
rfingers 7.12502
rthumb -17.0375 -18.2777
lclavicle -4.29375e-014 -3.4191e-014
lhumerus -264.721 6.57476 -281.856
lradius 12.8553
lwrist -27.6147
lhand -47.7647 -53.4501
lfingers 7.12502
lthumb -20.4423 -24.5062
rfemur -44.5652 5.61297 15.289
rtibia 34.0749
rfoot 16.154 0.782368
rtoes 8.97502
lfemur -51.2531 -6.15043 -21.5443
ltibia 49.465
lfoot 1.52136 2.38286
ltoes 2.69279
1615
root 0.116321 13.8515 6.31084 88.9129 1.46268 -0.351119
lowerback -10.4123 2.45457 -6.35073
upperback -0.427911 3.85401 4.1686
thorax 4.68285 1.75295 8.57078
lowerneck -16.2253 -3.17453 -1.41866
upperneck 30.5525 -3.62214 -1.12652
head 12.9002 -1.81725 -0.736651
rclavicle 2.70347e-014 2.96189e-014
rhumerus 82.6789 -16.3091 -25.1235
rradius 27.6741
rwrist 20.4141
rhand -44.0246 11.1399
rfingers 7.12502
rthumb -16.8448 -18.1495
lclavicle 2.70347e-014 2.96189e-014
lhumerus -263.865 5.79634 -274.91
lradius 11.4384
lwrist -35.5018
lhand -47.5795 -52.4683
lfingers 7.12502
lthumb -20.2643 -23.5054
rfemur -44.8054 5.8903 14.8625
rtibia 33.2052
rfoot 13.0522 -1.22931
rtoes 9.48515
lfemur -51.2873 -6.48992 -21.5885
ltibia 48.6941
lfoot 1.59868 1.88991
ltoes 2.76581
1616
root 0.113929 13.8376 6.29888 88.8152 1.50397 0.00757597
lowerback -10.4929 2.42378 -6.37762
upperback -0.497281 3.82338 4.10775
thorax 4.66272 1.7413 8.51887
lowerneck -16.6089 -3.24765 -1.35384
upperneck 30.3546 -3.72626 -1.16832
head 12.8967 -1.86107 -0.78481
rclavicle 3.33958e-014 1.39149e-014
rhumerus 81.9492 -16.9141 -25.5551
rradius 27.5003
rwrist 20.9628
rhand -43.8198 11.1317
rfingers 7.12502
rthumb -16.6477 -18.1744
lclavicle 3.33958e-014 1.39149e-014
lhumerus -262.965 4.74605 -266.14
lradius 10.247
lwrist -45.4613
lhand -47.3255 -51.3613
lfingers 7.12502
lthumb -20.0202 -22.3727
rfemur -45.0627 6.127 14.4813
rtibia 32.4547
rfoot 10.4145 -3.1862
rtoes 9.99418
lfemur -51.3009 -6.78011 -21.6201
ltibia 47.7058
lfoot 1.58258 1.61033
ltoes 2.82702
1617
root 0.10996 13.8222 6.28902 88.7374 1.55412 0.319826
lowerback -10.6191 2.39126 -6.381
upperback -0.549198 3.78996 4.04398
thorax 4.6887 1.72568 8.45416
lowerneck -16.988 -3.31992 -1.39011
upperneck 30.0786 -3.8358 -1.09464
head 12.8654 -1.90473 -0.771168
rclavicle 9.54166e-015 -3.51849e-014
rhumerus 81.2103 -17.5191 -25.9075
rradius 27.3536
rwrist 21.0189
rhand -43.6003 10.9287
rfingers 7.12502
rthumb -16.4364 -18.395
lclavicle 9.54166e-015 -3.51849e-014
lhumerus -262.26 3.6796 -257.592
lradius 9.40713
lwrist -55.458
lhand -47.0456 -49.8946
lfingers 7.12502
lthumb -19.7512 -20.8781
rfemur -45.3185 6.2893 14.1855
rtibia 31.8257
rfoot 8.40666 -4.881
rtoes 10.8082
lfemur -51.2951 -7.01284 -21.6364
ltibia 46.5538
lfoot 1.47622 1.56702
ltoes 2.82554
1618
root 0.104781 13.8057 6.28116 88.666 1.61407 0.58361
lowerback -10.7639 2.35758 -6.3708
upperback -0.59143 3.75384 3.98906
thorax 4.7361 1.70745 8.39273
lowerneck -17.3248 -3.39298 -1.54082
upperneck 29.7286 -3.95002 -0.898334
head 12.8016 -1.94814 -0.690168
rclavicle 4.77083e-014 5.76476e-015
rhumerus 80.4919 -18.0765 -26.2742
rradius 27.1958
rwrist 20.7995
rhand -43.3857 10.4991
rfingers 7.12502
rthumb -16.2297 -18.8416
lclavicle 4.77083e-014 5.76476e-015
lhumerus -261.729 2.63257 -249.075
lradius 8.97938
lwrist -65.5887
lhand -46.749 -48.0339
lfingers 7.12502
lthumb -19.466 -18.9883
rfemur -45.5533 6.33079 14.0154
rtibia 31.3195
rfoot 7.0132 -6.18697
rtoes 11.6737
lfemur -51.2767 -7.19105 -21.6351
ltibia 45.2939
lfoot 1.25826 1.77839
ltoes 2.57852
1619
root 0.0986643 13.7889 6.27507 88.5897 1.67658 0.796987
lowerback -10.903 2.32658 -6.36602
upperback -0.631541 3.72107 3.94846
thorax 4.78051 1.69076 8.35004
lowerneck -17.6262 -3.45885 -1.75351
upperneck 29.3397 -4.04768 -0.657645
head 12.7182 -1.98576 -0.578436
rclavicle -2.70347e-014 -2.40529e-014
rhumerus 79.7862 -18.5881 -26.6005
rradius 27.0453
rwrist 20.2803
rhand -43.1097 9.77643
rfingers 7.12502
rthumb -15.964 -19.5857
lclavicle -2.70347e-014 -2.40529e-014
lhumerus -261.343 1.64496 -240.566
lradius 8.94401
lwrist -75.7831
lhand -46.4516 -46.0495
lfingers 7.12502
lthumb -19.18 -16.9753
rfemur -45.7579 6.23321 13.9827
rtibia 30.9375
rfoot 6.15578 -7.02918
rtoes 12.309
lfemur -51.2552 -7.32062 -21.6207
ltibia 43.9818
lfoot 0.955962 2.2301
ltoes 2.05141
1620
root 0.0919821 13.7724 6.27034 88.5059 1.73777 0.963405
lowerback -11.0226 2.30937 -6.39175
upperback -0.685513 3.70889 3.93017
thorax 4.79188 1.68587 8.34968
lowerneck -17.8795 -3.51794 -1.96341
upperneck 28.9538 -4.12142 -0.461788
head 12.6255 -2.0182 -0.480215
rclavicle 3.97569e-014 1.21259e-014
rhumerus 79.0357 -19.0405 -26.8656
rradius 26.918
rwrist 19.5978
rhand -42.7678 8.77492
rfingers 7.12502
rthumb -15.6348 -20.6133
lclavicle 3.97569e-014 1.21259e-014
lhumerus -261.113 0.738342 -232.014
lradius 9.24644
lwrist -85.9653
lhand -46.2566 -44.3642
lfingers 7.12502
lthumb -18.9925 -15.2715
rfemur -45.9333 5.99229 14.0852
rtibia 30.6829
rfoot 5.72914 -7.39201
rtoes 12.6781
lfemur -51.2473 -7.41437 -21.5911
ltibia 42.6676
lfoot 0.599663 2.89228
ltoes 1.222
1621
root 0.0850241 13.757 6.26656 88.4134 1.79637 1.08467
lowerback -11.1099 2.31129 -6.4543
upperback -0.760236 3.72478 3.93353
thorax 4.75408 1.69754 8.39437
lowerneck -18.0764 -3.58459 -2.16465
upperneck 28.5497 -4.20209 -0.284623
head 12.5141 -2.05503 -0.39087
rclavicle -3.02153e-014 -1.15295e-014
rhumerus 78.2018 -19.4401 -27.0449
rradius 26.8432
rwrist 18.7853
rhand -42.3469 7.54308
rfingers 7.12502
rthumb -15.2293 -21.8764
lclavicle -3.02153e-014 -1.15295e-014
lhumerus -260.982 -0.0677286 -223.426
lradius 9.73035
lwrist -96.0045
lhand -46.2827 -43.2779
lfingers 7.12502
lthumb -19.0175 -14.1876
rfemur -46.0848 5.62833 14.3075
rtibia 30.5595
rfoot 5.59161 -7.27834
rtoes 12.5747
lfemur -51.2655 -7.47847 -21.5433
ltibia 41.394
lfoot 0.226841 3.70582
ltoes 0.267502
1622
root 0.0779466 13.7434 6.26354 88.3124 1.84299 1.161
lowerback -11.1583 2.33579 -6.56102
upperback -0.854524 3.77428 3.95304
thorax 4.66338 1.72875 8.48265
lowerneck -18.2484 -3.64631 -2.30593
upperneck 28.1262 -4.26631 -0.197569
head 12.3866 -2.08995 -0.342871
rclavicle 3.18055e-014 3.22031e-014
rhumerus 77.2408 -19.7995 -27.0974
rradius 26.8621
rwrist 17.7954
rhand -41.8349 6.18898
rfingers 7.12502
rthumb -14.7361 -23.2672
lclavicle 3.18055e-014 3.22031e-014
lhumerus -260.889 -0.783817 -214.792
lradius 10.2119
lwrist -105.776
lhand -46.6307 -42.8987
lfingers 7.12502
lthumb -19.3523 -13.8416
rfemur -46.2272 5.1828 14.609
rtibia 30.5692
rfoot 5.66686 -6.73911
rtoes 12.0962
lfemur -51.3163 -7.53458 -21.4706
ltibia 40.1926
lfoot -0.125172 4.62712
ltoes -0.681082
1623
root 0.0708535 13.732 6.26085 88.2076 1.88036 1.19434
lowerback -11.1651 2.38274 -6.69852
upperback -0.964656 3.85555 3.98163
thorax 4.52362 1.7788 8.59865
lowerneck -18.4242 -3.70294 -2.3672
upperneck 27.6833 -4.31816 -0.208889
head 12.2482 -2.12381 -0.343456
rclavicle -3.33958e-014 2.16675e-014
rhumerus 76.1228 -20.1229 -26.9925
rradius 27.0046
rwrist 16.5951
rhand -41.2614 4.70108
rfingers 7.12502
rthumb -14.1835 -24.7947
lclavicle -3.33958e-014 2.16675e-014
lhumerus -260.683 -0.433634 -212.306
lradius 10.5887
lwrist -108.895
lhand -46.5348 -41.1133
lfingers 7.12502
lthumb -19.26 -12.047
rfemur -46.3762 4.70417 14.9562
rtibia 30.7086
rfoot 5.8906 -5.84341
rtoes 11.3595
lfemur -51.4074 -7.59293 -21.3625
ltibia 39.0868
lfoot -0.395549 5.58554
ltoes -1.31769
1624
root 0.0638553 13.723 6.2583 88.1007 1.90672 1.19127
lowerback -11.1323 2.44813 -6.86403
upperback -1.08848 3.9629 4.01536
thorax 4.33926 1.84487 8.73571
lowerneck -18.5679 -3.76159 -2.40397
upperneck 27.1969 -4.38012 -0.224059
head 12.0865 -2.16048 -0.3499
rclavicle -2.22639e-014 -1.43125e-014
rhumerus 74.875 -20.3916 -26.8053
rradius 27.2653
rwrist 15.1675
rhand -40.6487 3.12219
rfingers 7.12502
rthumb -13.5931 -26.414
lclavicle -2.22639e-014 -1.43125e-014
lhumerus -260.413 0.23068 -211.253
lradius 10.8374
lwrist -110.002
lhand -46.2819 -39.1758
lfingers 7.12502
lthumb -19.0168 -10.0854
rfemur -46.5372 4.23706 15.3103
rtibia 30.9659
rfoot 6.22673 -4.68885
rtoes 10.4945
lfemur -51.5348 -7.6657 -21.2152
ltibia 38.091
lfoot -0.591447 6.54601
ltoes -1.50775
1625
root 0.0569061 13.7163 6.256 87.9896 1.9192 1.15536
lowerback -11.0631 2.5216 -7.0301
upperback -1.20974 4.07949 4.03456
thorax 4.13585 1.91715 8.85511
lowerneck -18.7247 -3.81487 -2.42958
upperneck 26.7004 -4.45236 -0.190907
head 11.926 -2.19451 -0.341933
rclavicle -2.38542e-014 -7.95139e-015
rhumerus 73.3542 -20.6592 -26.0948
rradius 27.7111
rwrist 12.8946
rhand -39.999 1.49933
rfingers 7.12502
rthumb -12.9669 -28.0777
lclavicle -2.38542e-014 -7.95139e-015
lhumerus -260.084 1.15929 -211.428
lradius 10.9171
lwrist -109.236
lhand -45.8505 -37.1037
lfingers 7.12502
lthumb -18.6019 -7.97317
rfemur -46.707 3.82067 15.6386
rtibia 31.3222
rfoot 6.65458 -3.37239
rtoes 9.60163
lfemur -51.6922 -7.75687 -21.0343
ltibia 37.2158
lfoot -0.701087 7.48163
ltoes -1.25763
1626
root 0.0500784 13.712 6.25399 87.8752 1.92582 1.09494
lowerback -10.9476 2.58525 -7.18201
upperback -1.33795 4.17799 4.04879
thorax 3.90369 1.98296 8.95409
lowerneck -18.8292 -3.82185 -2.43154
upperneck 26.1822 -4.45851 -0.192332
head 11.7457 -2.20214 -0.339079
rclavicle 4.92986e-014 2.22639e-014
rhumerus 71.8014 -20.7858 -25.4462
rradius 28.228
rwrist 10.2833
rhand -39.416 -0.0143167
rfingers 7.12502
rthumb -12.4048 -29.6262
lclavicle 4.92986e-014 2.22639e-014
lhumerus -259.735 2.42394 -212.855
lradius 10.8098
lwrist -106.528
lhand -45.3041 -34.9014
lfingers 7.12502
lthumb -18.0763 -5.72135
rfemur -46.8785 3.47554 15.9285
rtibia 31.7543
rfoot 7.1844 -1.99534
rtoes 8.8529
lfemur -51.8756 -7.86263 -20.8246
ltibia 36.4666
lfoot -0.756135 8.39191
ltoes -0.777066
1627
root 0.0433432 13.7097 6.25243 87.7551 1.93202 1.01265
lowerback -10.7922 2.62975 -7.3007
upperback -1.46797 4.24382 4.05104
thorax 3.65716 2.03404 9.01317
lowerneck -18.8744 -3.78182 -2.41812
upperneck 25.6383 -4.4073 -0.188373
head 11.5446 -2.18275 -0.32644
rclavicle 2.22639e-014 2.74323e-014
rhumerus 70.237 -20.788 -24.7637
rradius 28.8134
rwrist 7.13014
rhand -38.8629 -1.47543
rfingers 7.12502
rthumb -11.8714 -31.1189
lclavicle 2.22639e-014 2.74323e-014
lhumerus -259.453 4.11866 -215.822
lradius 10.4953
lwrist -101.604
lhand -44.7546 -32.6121
lfingers 7.12502
lthumb -17.5475 -3.38402
rfemur -47.0417 3.21227 16.1766
rtibia 32.2372
rfoot 7.80198 -0.618402
rtoes 8.31273
lfemur -52.0756 -7.96994 -20.5965
ltibia 35.8487
lfoot -0.770013 9.25977
ltoes -0.115291
1628
root 0.0366017 13.7089 6.25142 87.6257 1.93756 0.908808
lowerback -10.5999 2.6498 -7.39086
upperback -1.60366 4.27035 4.04677
thorax 3.39478 2.06695 9.04078
lowerneck -18.821 -3.68703 -2.37992
upperneck 25.035 -4.28489 -0.204082
head 11.3016 -2.13251 -0.311743
rclavicle 3.02153e-014 4.69132e-014
rhumerus 68.7415 -20.6393 -24.2012
rradius 29.4282
rwrist 3.62496
rhand -38.3304 -2.87283
rfingers 7.12502
rthumb -11.3579 -32.5453
lclavicle 3.02153e-014 4.69132e-014
lhumerus -259.52 6.48048 -221.126
lradius 10.0344
lwrist -93.7006
lhand -44.3336 -30.2885
lfingers 7.12502
lthumb -17.1423 -1.02476
rfemur -47.1849 3.03171 16.3824
rtibia 32.7469
rfoot 8.50518 0.706015
rtoes 8.05282
lfemur -52.2776 -8.0649 -20.3661
ltibia 35.3652
lfoot -0.754619 10.0814
ltoes 0.646027
